<svg width="1366" height="768" viewBox="0 0 1366 768" fill="none" xmlns="http://www.w3.org/2000/svg">
<rect width="1366" height="768" fill="url(#paint0_linear_420_830)"/>
<rect x="90" y="101" width="1166" height="568" rx="30" fill="#E65100"/>
<mask id="mask0_420_830" style="mask-type:alpha" maskUnits="userSpaceOnUse" x="90" y="101" width="1166" height="568">
<rect x="90" y="101" width="1166" height="568" rx="30" fill="#422F7B"/>
</mask>
<g mask="url(#mask0_420_830)">
<circle cx="1074" cy="277" r="983" fill="#EF6C00"/>
<ellipse cx="1074" cy="277.5" rx="857" ry="856.5" fill="#F57C00"/>
<ellipse cx="1074" cy="277.5" rx="726" ry="726.5" fill="#FB8C00"/>
<ellipse cx="1074" cy="277.5" rx="599" ry="599.5" fill="#FF9800"/>
<ellipse cx="1074" cy="277.5" rx="477" ry="476.5" fill="#FFA726"/>
<ellipse cx="1074" cy="277.5" rx="374" ry="374.5" fill="#FFB74D"/>
<ellipse cx="1074" cy="277.5" rx="268" ry="268.5" fill="#FFE0B2"/>
<ellipse cx="1074" cy="277.5" rx="179" ry="179.5" fill="#FFF3E0"/>
</g>
<rect opacity="0.6" x="90" y="101" width="1166" height="568" rx="30" fill="#E65100"/>
<path d="M798.85 400.9V436H790.3V414.95L782.45 436H775.55L767.65 414.9V436H759.1V400.9H769.2L779.05 425.2L788.8 400.9H798.85ZM826.848 429.8H813.748L811.648 436H802.698L815.398 400.9H825.298L837.998 436H828.948L826.848 429.8ZM824.648 423.2L820.298 410.35L815.998 423.2H824.648ZM873.264 436H864.714L850.414 414.35V436H841.864V400.9H850.414L864.714 422.65V400.9H873.264V436ZM901.311 429.8H888.211L886.111 436H877.161L889.861 400.9H899.761L912.461 436H903.411L901.311 429.8ZM899.111 423.2L894.761 410.35L890.461 423.2H899.111ZM939.627 412C938.993 410.833 938.077 409.95 936.877 409.35C935.71 408.717 934.327 408.4 932.727 408.4C929.96 408.4 927.743 409.317 926.077 411.15C924.41 412.95 923.577 415.367 923.577 418.4C923.577 421.633 924.443 424.167 926.177 426C927.943 427.8 930.36 428.7 933.427 428.7C935.527 428.7 937.293 428.167 938.727 427.1C940.193 426.033 941.26 424.5 941.927 422.5H931.077V416.2H949.677V424.15C949.043 426.283 947.96 428.267 946.427 430.1C944.927 431.933 943.01 433.417 940.677 434.55C938.343 435.683 935.71 436.25 932.777 436.25C929.31 436.25 926.21 435.5 923.477 434C920.777 432.467 918.66 430.35 917.127 427.65C915.627 424.95 914.877 421.867 914.877 418.4C914.877 414.933 915.627 411.85 917.127 409.15C918.66 406.417 920.777 404.3 923.477 402.8C926.177 401.267 929.26 400.5 932.727 400.5C936.927 400.5 940.46 401.517 943.327 403.55C946.227 405.583 948.143 408.4 949.077 412H939.627ZM962.963 407.75V414.85H974.413V421.45H962.963V429.15H975.913V436H954.413V400.9H975.913V407.75H962.963ZM999.363 436L992.063 422.75H990.013V436H981.463V400.9H995.813C998.58 400.9 1000.93 401.383 1002.86 402.35C1004.83 403.317 1006.3 404.65 1007.26 406.35C1008.23 408.017 1008.71 409.883 1008.71 411.95C1008.71 414.283 1008.05 416.367 1006.71 418.2C1005.41 420.033 1003.48 421.333 1000.91 422.1L1009.01 436H999.363ZM990.013 416.7H995.313C996.88 416.7 998.047 416.317 998.813 415.55C999.613 414.783 1000.01 413.7 1000.01 412.3C1000.01 410.967 999.613 409.917 998.813 409.15C998.047 408.383 996.88 408 995.313 408H990.013V416.7Z" fill="white"/>
<path d="M709.375 371.754L710.605 371.637C711.895 371.441 713.203 371.266 714.531 371.109C715.898 370.914 717.305 370.68 718.75 370.406C722.227 369.82 724.98 369.195 727.012 368.531C729.59 357.867 730.879 346.695 730.879 335.016C730.879 330.641 730.664 326.852 730.234 323.648C719.609 321.656 706.133 320.66 689.805 320.66H688.223L690.859 306.48H692.09C706.934 306.48 719.844 307.672 730.82 310.055C732.93 310.484 734.492 310.895 735.508 311.285C736.562 311.676 737.598 312.34 738.613 313.277C739.629 314.215 740.625 315.25 741.602 316.383C743.867 319.156 745.078 321.266 745.234 322.711C745.547 325.602 745.703 328.844 745.703 332.438C745.703 336.031 745.547 339.82 745.234 343.805C744.922 347.789 744.453 351.715 743.828 355.582C742.539 363.98 740.801 370.855 738.613 376.207C738.145 377.418 737.617 378.297 737.031 378.844C736.484 379.352 735.352 379.898 733.633 380.484C731.914 381.031 729.785 381.559 727.246 382.066C724.746 382.574 721.953 383.004 718.867 383.355C713.125 384.02 705.469 384.586 695.898 385.055V328.922L710.312 325.816L710.547 338.414L709.375 371.754ZM758.945 344.977C758.945 339.742 759.492 336.715 760.586 335.895C761.68 335.074 762.91 334.254 764.277 333.434C765.645 332.574 767.148 331.734 768.789 330.914C770.43 330.094 772.129 329.312 773.887 328.57C775.684 327.828 777.441 327.164 779.16 326.578C782.832 325.328 785.566 324.703 787.363 324.703C789.199 324.703 790.684 324.801 791.816 324.996C792.949 325.152 793.984 325.426 794.922 325.816C797.07 326.715 798.281 328.023 798.555 329.742C799.844 337.906 800.488 347.633 800.488 358.922V362.379L772.422 362.73V370.348C775.469 371.09 779.102 371.773 783.32 372.398L793.398 374.039C795.977 374.43 798.613 374.879 801.309 375.387L797.852 388.219C787.109 386.539 775.703 383.824 763.633 380.074C760.859 379.176 759.434 377.555 759.355 375.211L758.945 344.977ZM787.305 349.781C787.305 346.109 786.934 342.242 786.191 338.18C784.629 338.18 783.379 338.258 782.441 338.414C781.504 338.57 780.566 338.785 779.629 339.059C778.691 339.332 777.734 339.645 776.758 339.996C774.453 340.816 772.93 341.52 772.188 342.105V352.652L787.305 351.012V349.781ZM815.078 300.387L829.609 297.691L830.02 339.938L828.203 384L815.84 385.055L815.078 300.387ZM860.371 295.816C860.801 297.34 861.016 299.059 861.016 300.973C861.016 302.848 860.957 304.449 860.84 305.777C860.723 307.066 860.586 308.277 860.43 309.41C860.039 311.871 859.59 313.551 859.082 314.449L845.605 313.863C846.27 310.426 846.602 304.938 846.602 297.398L860.371 295.816ZM859.902 325.348C860.098 329.371 860.195 332.75 860.195 335.484C860.195 338.219 860.137 341.422 860.02 345.094L858.672 384L846.191 385.055L845.02 327.223L859.902 325.348ZM887.5 384.352C887.5 384.352 884.766 374.938 879.297 356.109C879.297 356.109 876.504 346.891 870.918 328.453L886.387 324.703L894.18 360.387L895.527 373.102L898.633 372.867L902.031 357.984C902.93 354.078 903.711 350.152 904.375 346.207L908.008 325.465L922.949 327.105C920.059 340.934 916.25 354.957 911.523 369.176L906.426 383.766C901.973 384.391 898.242 384.703 895.234 384.703C892.227 384.703 889.648 384.586 887.5 384.352ZM931.562 344.977C931.562 339.742 932.109 336.715 933.203 335.895C934.297 335.074 935.527 334.254 936.895 333.434C938.262 332.574 939.766 331.734 941.406 330.914C943.047 330.094 944.746 329.312 946.504 328.57C948.301 327.828 950.059 327.164 951.777 326.578C955.449 325.328 958.184 324.703 959.98 324.703C961.816 324.703 963.301 324.801 964.434 324.996C965.566 325.152 966.602 325.426 967.539 325.816C969.688 326.715 970.898 328.023 971.172 329.742C972.461 337.906 973.105 347.633 973.105 358.922V362.379L945.039 362.73V370.348C948.086 371.09 951.719 371.773 955.938 372.398L966.016 374.039C968.594 374.43 971.23 374.879 973.926 375.387L970.469 388.219C959.727 386.539 948.32 383.824 936.25 380.074C933.477 379.176 932.051 377.555 931.973 375.211L931.562 344.977ZM959.922 349.781C959.922 346.109 959.551 342.242 958.809 338.18C957.246 338.18 955.996 338.258 955.059 338.414C954.121 338.57 953.184 338.785 952.246 339.059C951.309 339.332 950.352 339.645 949.375 339.996C947.07 340.816 945.547 341.52 944.805 342.105V352.652L959.922 351.012V349.781ZM988.223 338.531L988.105 327.691L1000.59 326.402L1002.64 335.309L1011.6 325.465H1018.57L1021.5 339.176C1021.5 339.176 1018.44 339.84 1012.3 341.168C1009.38 341.793 1006.35 342.477 1003.22 343.219L1002.4 383.297L989.16 384.469L988.223 338.531ZM1028.48 326.52L1042.36 323.648L1043.48 370.934C1045.12 371.48 1046.39 371.754 1047.29 371.754C1048.22 371.754 1049 371.754 1049.63 371.754C1050.29 371.715 1051.05 371.617 1051.91 371.461C1054.06 371.031 1056.33 370.211 1058.71 369L1059.18 327.105L1072.48 325.465L1073.18 391.383C1073.18 393.375 1071.91 395.27 1069.38 397.066C1062.89 401.559 1058.12 404.762 1055.08 406.676L1046.64 411.891C1043.98 413.414 1041.39 414.84 1038.85 416.168L1031.7 403.336C1045.76 396.773 1055.37 391.93 1060.53 388.805L1059.65 374.391L1050.92 384H1035.92C1034.75 383.883 1033.55 383.316 1032.34 382.301C1030.47 380.777 1029.53 379.137 1029.53 377.379L1028.48 326.52Z" fill="#FFCC80"/>
<defs>
<linearGradient id="paint0_linear_420_830" x1="731.5" y1="0" x2="731.5" y2="768" gradientUnits="userSpaceOnUse">
<stop stop-color="#F1E0CC"/>
<stop offset="1" stop-color="#F0B065"/>
</linearGradient>
</defs>
</svg>
