<svg width="397" height="179" viewBox="0 0 397 179" fill="none" xmlns="http://www.w3.org/2000/svg">
<path d="M113.85 123.9V159H105.3V137.95L97.45 159H90.55L82.65 137.9V159H74.1V123.9H84.2L94.05 148.2L103.8 123.9H113.85ZM141.848 152.8H128.748L126.648 159H117.698L130.398 123.9H140.298L152.998 159H143.948L141.848 152.8ZM139.648 146.2L135.298 133.35L130.998 146.2H139.648ZM188.264 159H179.714L165.414 137.35V159H156.864V123.9H165.414L179.714 145.65V123.9H188.264V159ZM216.311 152.8H203.211L201.111 159H192.161L204.861 123.9H214.761L227.461 159H218.411L216.311 152.8ZM214.111 146.2L209.761 133.35L205.461 146.2H214.111ZM254.627 135C253.993 133.833 253.077 132.95 251.877 132.35C250.71 131.717 249.327 131.4 247.727 131.4C244.96 131.4 242.743 132.317 241.077 134.15C239.41 135.95 238.577 138.367 238.577 141.4C238.577 144.633 239.443 147.167 241.177 149C242.943 150.8 245.36 151.7 248.427 151.7C250.527 151.7 252.293 151.167 253.727 150.1C255.193 149.033 256.26 147.5 256.927 145.5H246.077V139.2H264.677V147.15C264.043 149.283 262.96 151.267 261.427 153.1C259.927 154.933 258.01 156.417 255.677 157.55C253.343 158.683 250.71 159.25 247.777 159.25C244.31 159.25 241.21 158.5 238.477 157C235.777 155.467 233.66 153.35 232.127 150.65C230.627 147.95 229.877 144.867 229.877 141.4C229.877 137.933 230.627 134.85 232.127 132.15C233.66 129.417 235.777 127.3 238.477 125.8C241.177 124.267 244.26 123.5 247.727 123.5C251.927 123.5 255.46 124.517 258.327 126.55C261.227 128.583 263.143 131.4 264.077 135H254.627ZM277.963 130.75V137.85H289.413V144.45H277.963V152.15H290.913V159H269.413V123.9H290.913V130.75H277.963ZM314.363 159L307.063 145.75H305.013V159H296.463V123.9H310.813C313.58 123.9 315.93 124.383 317.863 125.35C319.83 126.317 321.297 127.65 322.263 129.35C323.23 131.017 323.713 132.883 323.713 134.95C323.713 137.283 323.047 139.367 321.713 141.2C320.413 143.033 318.48 144.333 315.913 145.1L324.013 159H314.363ZM305.013 139.7H310.313C311.88 139.7 313.047 139.317 313.813 138.55C314.613 137.783 315.013 136.7 315.013 135.3C315.013 133.967 314.613 132.917 313.813 132.15C313.047 131.383 311.88 131 310.313 131H305.013V139.7Z" fill="white"/>
<path d="M24.375 94.7539L25.6055 94.6367C26.8945 94.4414 28.2031 94.2656 29.5312 94.1094C30.8984 93.9141 32.3047 93.6797 33.75 93.4062C37.2266 92.8203 39.9805 92.1953 42.0117 91.5312C44.5898 80.8672 45.8789 69.6953 45.8789 58.0156C45.8789 53.6406 45.6641 49.8516 45.2344 46.6484C34.6094 44.6562 21.1328 43.6602 4.80469 43.6602H3.22266L5.85938 29.4805H7.08984C21.9336 29.4805 34.8438 30.6719 45.8203 33.0547C47.9297 33.4844 49.4922 33.8945 50.5078 34.2852C51.5625 34.6758 52.5977 35.3398 53.6133 36.2773C54.6289 37.2148 55.625 38.25 56.6016 39.3828C58.8672 42.1562 60.0781 44.2656 60.2344 45.7109C60.5469 48.6016 60.7031 51.8438 60.7031 55.4375C60.7031 59.0312 60.5469 62.8203 60.2344 66.8047C59.9219 70.7891 59.4531 74.7148 58.8281 78.582C57.5391 86.9805 55.8008 93.8555 53.6133 99.207C53.1445 100.418 52.6172 101.297 52.0312 101.844C51.4844 102.352 50.3516 102.898 48.6328 103.484C46.9141 104.031 44.7852 104.559 42.2461 105.066C39.7461 105.574 36.9531 106.004 33.8672 106.355C28.125 107.02 20.4688 107.586 10.8984 108.055V51.9219L25.3125 48.8164L25.5469 61.4141L24.375 94.7539ZM73.9453 67.9766C73.9453 62.7422 74.4922 59.7148 75.5859 58.8945C76.6797 58.0742 77.9102 57.2539 79.2773 56.4336C80.6445 55.5742 82.1484 54.7344 83.7891 53.9141C85.4297 53.0938 87.1289 52.3125 88.8867 51.5703C90.6836 50.8281 92.4414 50.1641 94.1602 49.5781C97.832 48.3281 100.566 47.7031 102.363 47.7031C104.199 47.7031 105.684 47.8008 106.816 47.9961C107.949 48.1523 108.984 48.4258 109.922 48.8164C112.07 49.7148 113.281 51.0234 113.555 52.7422C114.844 60.9062 115.488 70.6328 115.488 81.9219V85.3789L87.4219 85.7305V93.3477C90.4688 94.0898 94.1016 94.7734 98.3203 95.3984L108.398 97.0391C110.977 97.4297 113.613 97.8789 116.309 98.3867L112.852 111.219C102.109 109.539 90.7031 106.824 78.6328 103.074C75.8594 102.176 74.4336 100.555 74.3555 98.2109L73.9453 67.9766ZM102.305 72.7812C102.305 69.1094 101.934 65.2422 101.191 61.1797C99.6289 61.1797 98.3789 61.2578 97.4414 61.4141C96.5039 61.5703 95.5664 61.7852 94.6289 62.0586C93.6914 62.332 92.7344 62.6445 91.7578 62.9961C89.4531 63.8164 87.9297 64.5195 87.1875 65.1055V75.6523L102.305 74.0117V72.7812ZM130.078 23.3867L144.609 20.6914L145.02 62.9375L143.203 107L130.84 108.055L130.078 23.3867ZM175.371 18.8164C175.801 20.3398 176.016 22.0586 176.016 23.9727C176.016 25.8477 175.957 27.4492 175.84 28.7773C175.723 30.0664 175.586 31.2773 175.43 32.4102C175.039 34.8711 174.59 36.5508 174.082 37.4492L160.605 36.8633C161.27 33.4258 161.602 27.9375 161.602 20.3984L175.371 18.8164ZM174.902 48.3477C175.098 52.3711 175.195 55.75 175.195 58.4844C175.195 61.2188 175.137 64.4219 175.02 68.0938L173.672 107L161.191 108.055L160.02 50.2227L174.902 48.3477ZM202.5 107.352C202.5 107.352 199.766 97.9375 194.297 79.1094C194.297 79.1094 191.504 69.8906 185.918 51.4531L201.387 47.7031L209.18 83.3867L210.527 96.1016L213.633 95.8672L217.031 80.9844C217.93 77.0781 218.711 73.1523 219.375 69.207L223.008 48.4648L237.949 50.1055C235.059 63.9336 231.25 77.957 226.523 92.1758L221.426 106.766C216.973 107.391 213.242 107.703 210.234 107.703C207.227 107.703 204.648 107.586 202.5 107.352ZM246.562 67.9766C246.562 62.7422 247.109 59.7148 248.203 58.8945C249.297 58.0742 250.527 57.2539 251.895 56.4336C253.262 55.5742 254.766 54.7344 256.406 53.9141C258.047 53.0938 259.746 52.3125 261.504 51.5703C263.301 50.8281 265.059 50.1641 266.777 49.5781C270.449 48.3281 273.184 47.7031 274.98 47.7031C276.816 47.7031 278.301 47.8008 279.434 47.9961C280.566 48.1523 281.602 48.4258 282.539 48.8164C284.688 49.7148 285.898 51.0234 286.172 52.7422C287.461 60.9062 288.105 70.6328 288.105 81.9219V85.3789L260.039 85.7305V93.3477C263.086 94.0898 266.719 94.7734 270.938 95.3984L281.016 97.0391C283.594 97.4297 286.23 97.8789 288.926 98.3867L285.469 111.219C274.727 109.539 263.32 106.824 251.25 103.074C248.477 102.176 247.051 100.555 246.973 98.2109L246.562 67.9766ZM274.922 72.7812C274.922 69.1094 274.551 65.2422 273.809 61.1797C272.246 61.1797 270.996 61.2578 270.059 61.4141C269.121 61.5703 268.184 61.7852 267.246 62.0586C266.309 62.332 265.352 62.6445 264.375 62.9961C262.07 63.8164 260.547 64.5195 259.805 65.1055V75.6523L274.922 74.0117V72.7812ZM303.223 61.5312L303.105 50.6914L315.586 49.4023L317.637 58.3086L326.602 48.4648H333.574L336.504 62.1758C336.504 62.1758 333.438 62.8398 327.305 64.168C324.375 64.793 321.348 65.4766 318.223 66.2188L317.402 106.297L304.16 107.469L303.223 61.5312ZM343.477 49.5195L357.363 46.6484L358.477 93.9336C360.117 94.4805 361.387 94.7539 362.285 94.7539C363.223 94.7539 364.004 94.7539 364.629 94.7539C365.293 94.7148 366.055 94.6172 366.914 94.4609C369.062 94.0312 371.328 93.2109 373.711 92L374.18 50.1055L387.48 48.4648L388.184 114.383C388.184 116.375 386.914 118.27 384.375 120.066C377.891 124.559 373.125 127.762 370.078 129.676L361.641 134.891C358.984 136.414 356.387 137.84 353.848 139.168L346.699 126.336C360.762 119.773 370.371 114.93 375.527 111.805L374.648 97.3906L365.918 107H350.918C349.746 106.883 348.555 106.316 347.344 105.301C345.469 103.777 344.531 102.137 344.531 100.379L343.477 49.5195Z" fill="#FFCC80"/>
</svg>
